<?xml version="1.0" encoding="UTF-8" standalone="no"?>
<svg
   xmlns:dc="http://purl.org/dc/elements/1.1/"
   xmlns:cc="http://creativecommons.org/ns#"
   xmlns:rdf="http://www.w3.org/1999/02/22-rdf-syntax-ns#"
   xmlns:svg="http://www.w3.org/2000/svg"
   xmlns="http://www.w3.org/2000/svg"
   xmlns:xlink="http://www.w3.org/1999/xlink"
   xmlns:sodipodi="http://sodipodi.sourceforge.net/DTD/sodipodi-0.dtd"
   xmlns:inkscape="http://www.inkscape.org/namespaces/inkscape"
   sodipodi:docname="logo.svg"
   inkscape:version="1.0 (4035a4fb49, 2020-05-01)"
   id="svg8"
   version="1.1"
   viewBox="0 0 86.621483 101.6339"
   height="101.6339mm"
   width="86.621483mm">
  <defs
     id="defs2">
    <linearGradient
       inkscape:collect="always"
       xlink:href="#linearGradient1148"
       id="linearGradient1150"
       x1="-94.853127"
       y1="122.36979"
       x2="-95.325211"
       y2="138.45847"
       gradientUnits="userSpaceOnUse"
       gradientTransform="matrix(2.1451613,0,0,2.1451613,387.36254,-188.68697)" />
    <linearGradient
       inkscape:collect="always"
       id="linearGradient1148">
      <stop
         style="stop-color:#2a695a;stop-opacity:1"
         offset="0"
         id="stop1144" />
      <stop
         style="stop-color:#72beac;stop-opacity:1"
         offset="1"
         id="stop1146" />
    </linearGradient>
    <linearGradient
       inkscape:collect="always"
       xlink:href="#linearGradient1148"
       id="linearGradient1158"
       x1="-74.304802"
       y1="135.87408"
       x2="-73.818748"
       y2="111.65417"
       gradientUnits="userSpaceOnUse"
       gradientTransform="matrix(2.1451613,0,0,2.1451613,387.36254,-188.68697)" />
    <linearGradient
       inkscape:collect="always"
       xlink:href="#linearGradient875"
       id="linearGradient877"
       x1="-67.819641"
       y1="142.93575"
       x2="-65.106857"
       y2="116.08852"
       gradientUnits="userSpaceOnUse"
       gradientTransform="matrix(2.1451613,0,0,2.1451613,387.36254,-188.68697)" />
    <linearGradient
       inkscape:collect="always"
       id="linearGradient875">
      <stop
         style="stop-color:#302658;stop-opacity:1"
         offset="0"
         id="stop871" />
      <stop
         style="stop-color:#6d658b;stop-opacity:1"
         offset="1"
         id="stop873" />
    </linearGradient>
  </defs>
  <sodipodi:namedview
     inkscape:window-maximized="1"
     inkscape:window-y="-9"
     inkscape:window-x="-9"
     inkscape:window-height="1001"
     inkscape:window-width="1920"
     fit-margin-bottom="0"
     fit-margin-right="0"
     fit-margin-left="0"
     fit-margin-top="0"
     showgrid="false"
     inkscape:document-rotation="0"
     inkscape:current-layer="layer1"
     inkscape:document-units="mm"
     inkscape:cy="440.63551"
     inkscape:cx="-250.59062"
     inkscape:zoom="0.35"
     inkscape:pageshadow="2"
     inkscape:pageopacity="0.0"
     borderopacity="1.0"
     bordercolor="#666666"
     pagecolor="#ffffff"
     id="base" />
  <metadata
     id="metadata5">
    <rdf:RDF>
      <cc:Work
         rdf:about="">
        <dc:format>image/svg+xml</dc:format>
        <dc:type
           rdf:resource="http://purl.org/dc/dcmitype/StillImage" />
        <dc:title></dc:title>
      </cc:Work>
    </rdf:RDF>
  </metadata>
  <g
     transform="translate(-172.13543,-31.581855)"
     id="layer1"
     inkscape:groupmode="layer"
     inkscape:label="Layer 1">
    <path
       d="m 172.68998,31.582991 -0.4301,44.404885 -0.10425,10.690791 c 0,0 -1.82373,33.041073 29.19013,35.676243 22.69766,1.92854 29.92032,-13.90434 32.35172,-24.782585 l -0.16627,-0.0311 c -0.42245,1.02149 -0.91284,1.998591 -1.46439,2.925435 -0.55154,0.9269 -1.16446,1.80334 -1.83131,2.62616 -0.66685,0.8228 -1.38775,1.59092 -2.15612,2.30021 -0.76836,0.70929 -1.58382,1.36026 -2.4399,1.9466 -0.85609,0.58637 -1.75266,1.10912 -2.68267,1.56305 -0.93002,0.45395 -1.89318,0.83859 -2.88333,1.15067 -0.99015,0.31211 -2.00756,0.5509 -3.04405,0.71168 -1.0365,0.16089 -2.09252,0.24382 -3.16157,0.24389 -1.41863,-3e-5 -2.81355,-0.14501 -4.17034,-0.42237 -1.3568,-0.27735 -2.67492,-0.68689 -3.93977,-1.21496 -1.26484,-0.52807 -2.47661,-1.17452 -3.61939,-1.92664 -1.14278,-0.75213 -2.21752,-1.61004 -3.20812,-2.55964 -0.9906,-0.9496 -1.89764,-1.99122 -2.70596,-3.11169 -0.8083,-1.1204 -1.51697,-2.320344 -2.11288,-3.585005 -0.59591,-1.26465 -1.07884,-2.59407 -1.43223,-3.97633 -0.3534,-1.382289 -0.57772,-2.816839 -0.65848,-4.290071 V 57.180281 50.354978 a 21.406673,22.266677 0 0 0 -0.0233,-0.156383 21.406673,22.266677 0 0 0 -0.0487,-0.298199 21.406673,22.266677 0 0 0 -0.0521,-0.295967 21.406673,22.266677 0 0 0 -0.0565,-0.297084 21.406673,22.266677 0 0 0 -0.0599,-0.294874 21.406673,22.266677 0 0 0 -0.0643,-0.294874 21.406673,22.266677 0 0 0 -0.0677,-0.292664 21.406673,22.266677 0 0 0 -0.0709,-0.292643 21.406673,22.266677 0 0 0 -0.0754,-0.29155 21.406673,22.266677 0 0 0 -0.0798,-0.290433 21.406673,22.266677 0 0 0 -0.0832,-0.289339 21.406673,22.266677 0 0 0 -0.0865,-0.288224 21.406673,22.266677 0 0 0 -0.0897,-0.287108 21.406673,22.266677 0 0 0 -0.0942,-0.2849 21.406673,22.266677 0 0 0 -0.0987,-0.283783 21.406673,22.266677 0 0 0 -0.10091,-0.283783 21.406673,22.266677 0 0 0 -0.10537,-0.280459 21.406673,22.266677 0 0 0 -0.10858,-0.280457 21.406673,22.266677 0 0 0 -0.11305,-0.278249 21.406673,22.266677 0 0 0 -0.11639,-0.27604 21.406673,22.266677 0 0 0 -0.11975,-0.274924 21.406673,22.266677 0 0 0 -0.1231,-0.273809 21.406673,22.266677 0 0 0 -0.1263,-0.271576 21.406673,22.266677 0 0 0 -0.13077,-0.26939 21.406673,22.266677 0 0 0 -0.13412,-0.267159 21.406673,22.266677 0 0 0 -0.13747,-0.266043 21.406673,22.266677 0 0 0 -0.1408,-0.263832 21.406673,22.266677 0 0 0 -0.14411,-0.261625 21.406673,22.266677 0 0 0 -0.14744,-0.260508 21.406673,22.266677 0 0 0 -0.15075,-0.257183 21.406673,22.266677 0 0 0 -0.1541,-0.256069 21.406673,22.266677 0 0 0 -0.15851,-0.253858 21.406673,22.266677 0 0 0 -0.16074,-0.250534 21.406673,22.266677 0 0 0 -0.16407,-0.249418 21.406673,22.266677 0 0 0 -0.16738,-0.246092 21.406673,22.266677 0 0 0 -0.17072,-0.243885 21.406673,22.266677 0 0 0 -0.17403,-0.24165 21.406673,22.266677 0 0 0 -0.17627,-0.239466 21.406673,22.266677 0 0 0 -0.18068,-0.237212 21.406673,22.266677 0 0 0 -0.18293,-0.233908 21.406673,22.266677 0 0 0 -0.18624,-0.231678 21.406673,22.266677 0 0 0 -0.18957,-0.228374 21.406673,22.266677 0 0 0 -0.19177,-0.226143 21.406673,22.266677 0 0 0 -0.19511,-0.223911 21.406673,22.266677 0 0 0 -0.1973,-0.22061 21.406673,22.266677 0 0 0 -0.20176,-0.217261 21.406673,22.266677 0 0 0 -0.20287,-0.215074 21.406673,22.266677 0 0 0 -0.20619,-0.212799 21.406673,22.266677 0 0 0 -0.20952,-0.209583 21.406673,22.266677 0 0 0 -0.21173,-0.20615 21.406673,22.266677 0 0 0 -0.21505,-0.202931 21.406673,22.266677 0 0 0 -0.21728,-0.200575 21.406673,22.266677 0 0 0 -0.21949,-0.196281 21.406673,22.266677 0 0 0 -0.22171,-0.193923 21.406673,22.266677 0 0 0 -0.22504,-0.191777 21.406673,22.266677 0 0 0 -0.22725,-0.187274 21.406673,22.266677 0 0 0 -0.22946,-0.184054 21.406673,22.266677 0 0 0 -0.2328,-0.18191 21.406673,22.266677 0 0 0 -0.2339,-0.177405 21.406673,22.266677 0 0 0 -0.23723,-0.175259 21.406673,22.266677 0 0 0 -0.23833,-0.170754 21.406673,22.266677 0 0 0 -0.24167,-0.168609 21.406673,22.266677 0 0 0 -0.24276,-0.164107 21.406673,22.266677 0 0 0 -0.24611,-0.160672 21.406673,22.266677 0 0 0 -0.2472,-0.157454 21.406673,22.266677 0 0 0 -0.24943,-0.154023 21.406673,22.266677 0 0 0 -0.25163,-0.150805 21.406673,22.266677 0 0 0 -0.25385,-0.1463 21.406673,22.266677 0 0 0 -0.25497,-0.144154 21.406673,22.266677 0 0 0 -0.25719,-0.13965 21.406673,22.266677 0 0 0 -0.2594,-0.13514 21.406673,22.266677 0 0 0 -0.26049,-0.133005 21.406673,22.266677 0 0 0 -0.26273,-0.128497 21.406673,22.266677 0 0 0 -0.26384,-0.125273 21.406673,22.266677 0 0 0 -0.26605,-0.120765 21.406673,22.266677 0 0 0 -0.26717,-0.117555 21.406673,22.266677 0 0 0 -0.26827,-0.114121 21.406673,22.266677 0 0 0 -0.27047,-0.109838 21.406673,22.266677 0 0 0 -0.27159,-0.106403 21.406673,22.266677 0 0 0 -0.27382,-0.101896 21.406673,22.266677 0 0 0 -0.27381,-0.09867 21.406673,22.266677 0 0 0 -0.27603,-0.09418 21.406673,22.266677 0 0 0 -0.27601,-0.09095 21.406673,22.266677 0 0 0 -0.27825,-0.08645 21.406673,22.266677 0 0 0 -0.27936,-0.08301 21.406673,22.266677 0 0 0 -0.27935,-0.07873 21.406673,22.266677 0 0 0 -0.28157,-0.07422 21.406673,22.266677 0 0 0 -0.28157,-0.07101 21.406673,22.266677 0 0 0 -0.28379,-0.06758 21.406673,22.266677 0 0 0 -0.28378,-0.06328 21.406673,22.266677 0 0 0 -0.28379,-0.05878 21.406673,22.266677 0 0 0 -0.28601,-0.05428 21.406673,22.266677 0 0 0 -0.28599,-0.05105 21.406673,22.266677 0 0 0 -0.28601,-0.04654 21.406673,22.266677 0 0 0 -0.28823,-0.04334 21.406673,22.266677 0 0 0 -0.28711,-0.03883 21.406673,22.266677 0 0 0 -0.28821,-0.03432 21.406673,22.266677 0 0 0 -0.28933,-0.03111 21.406673,22.266677 0 0 0 -0.20508,-0.0193 z"
       style="display:inline;opacity:0.998;fill:url(#linearGradient1150);fill-opacity:1;stroke:none;stroke-width:0.567574;stroke-linecap:round;stroke-linejoin:round;stroke-miterlimit:4;stroke-dasharray:none;stroke-opacity:1;paint-order:stroke fill markers"
       id="path957-7"
       inkscape:export-xdpi="96"
       inkscape:export-ydpi="96" />
    <path
       d="m 234.35934,31.581876 a 21.406673,22.266677 0 0 0 -0.20507,0.0193 21.406673,22.266677 0 0 0 -0.28933,0.03111 21.406673,22.266677 0 0 0 -0.28822,0.03432 21.406673,22.266677 0 0 0 -0.28712,0.03883 21.406673,22.266677 0 0 0 -0.28822,0.04333 21.406673,22.266677 0 0 0 -0.286,0.04654 21.406673,22.266677 0 0 0 -0.286,0.05105 21.406673,22.266677 0 0 0 -0.28601,0.05428 21.406673,22.266677 0 0 0 -0.28379,0.05878 21.406673,22.266677 0 0 0 -0.28379,0.06328 21.406673,22.266677 0 0 0 -0.28378,0.06758 21.406673,22.266677 0 0 0 -0.28157,0.07101 21.406673,22.266677 0 0 0 -0.28157,0.07422 21.406673,22.266677 0 0 0 -0.27935,0.07873 21.406673,22.266677 0 0 0 -0.27935,0.08301 21.406673,22.266677 0 0 0 -0.27825,0.08645 21.406673,22.266677 0 0 0 -0.27603,0.09095 21.406673,22.266677 0 0 0 -0.27602,0.09418 21.406673,22.266677 0 0 0 -0.27381,0.09867 21.406673,22.266677 0 0 0 -0.27381,0.101896 21.406673,22.266677 0 0 0 -0.2716,0.106403 21.406673,22.266677 0 0 0 -0.27048,0.109838 21.406673,22.266677 0 0 0 -0.26827,0.114121 21.406673,22.266677 0 0 0 -0.26716,0.117555 21.406673,22.266677 0 0 0 -0.26605,0.120779 21.406673,22.266677 0 0 0 -0.26383,0.125273 21.406673,22.266677 0 0 0 -0.26273,0.128707 21.406673,22.266677 0 0 0 -0.2605,0.133004 21.406673,22.266677 0 0 0 -0.2594,0.135141 21.406673,22.266677 0 0 0 -0.25719,0.139649 21.406673,22.266677 0 0 0 -0.25496,0.144154 21.406673,22.266677 0 0 0 -0.25386,0.1463 21.406673,22.266677 0 0 0 -0.25164,0.150804 21.406673,22.266677 0 0 0 -0.24942,0.154023 21.406673,22.266677 0 0 0 -0.2472,0.157456 21.406673,22.266677 0 0 0 -0.2461,0.160673 21.406673,22.266677 0 0 0 -0.24277,0.164104 21.406673,22.266677 0 0 0 -0.24166,0.16861 21.406673,22.266677 0 0 0 -0.23834,0.170755 21.406673,22.266677 0 0 0 -0.23723,0.17526 21.406673,22.266677 0 0 0 -0.2339,0.177403 21.406673,22.266677 0 0 0 -0.23279,0.18191 21.406673,22.266677 0 0 0 -0.22947,0.184057 21.406673,22.266677 0 0 0 -0.22725,0.187271 21.406673,22.266677 0 0 0 -0.22504,0.191779 21.406673,22.266677 0 0 0 -0.2217,0.19392 21.406673,22.266677 0 0 0 -0.21949,0.196284 21.406673,22.266677 0 0 0 -0.21728,0.200573 21.406673,22.266677 0 0 0 -0.21506,0.202932 21.406673,22.266677 0 0 0 -0.21173,0.206149 21.406673,22.266677 0 0 0 -0.20951,0.209583 21.406673,22.266677 0 0 0 -0.2062,0.2128 21.406673,22.266677 0 0 0 -0.20287,0.215074 21.406673,22.266677 0 0 0 -0.20175,0.217261 21.406673,22.266677 0 0 0 -0.19731,0.220609 21.406673,22.266677 0 0 0 -0.1951,0.223911 21.406673,22.266677 0 0 0 -0.19178,0.226144 21.406673,22.266677 0 0 0 -0.18957,0.228373 21.406673,22.266677 0 0 0 -0.18624,0.231678 21.406673,22.266677 0 0 0 -0.1829,0.233909 21.406673,22.266677 0 0 0 -0.18068,0.237211 21.406673,22.266677 0 0 0 -0.17627,0.239465 21.406673,22.266677 0 0 0 -0.17404,0.241651 21.406673,22.266677 0 0 0 -0.17071,0.243885 21.406673,22.266677 0 0 0 -0.16739,0.246092 21.406673,22.266677 0 0 0 -0.16406,0.249419 21.406673,22.266677 0 0 0 -0.16074,0.250533 21.406673,22.266677 0 0 0 -0.15852,0.253859 21.406673,22.266677 0 0 0 -0.15409,0.256068 21.406673,22.266677 0 0 0 -0.15076,0.257184 21.406673,22.266677 0 0 0 -0.14744,0.260508 21.406673,22.266677 0 0 0 -0.14411,0.261624 21.406673,22.266677 0 0 0 -0.14079,0.263833 21.406673,22.266677 0 0 0 -0.13745,0.266043 21.406673,22.266677 0 0 0 -0.13414,0.267158 21.406673,22.266677 0 0 0 -0.13081,0.26939 21.406673,22.266677 0 0 0 -0.12638,0.271577 21.406673,22.266677 0 0 0 -0.12304,0.273808 21.406673,22.266677 0 0 0 -0.11972,0.274925 21.406673,22.266677 0 0 0 -0.11639,0.276039 21.406673,22.266677 0 0 0 -0.11308,0.278227 21.406673,22.266677 0 0 0 -0.10864,0.28048 21.406673,22.266677 0 0 0 -0.1053,0.280458 21.406673,22.266677 0 0 0 -0.10086,0.283784 21.406673,22.266677 0 0 0 -0.0987,0.283784 21.406673,22.266677 0 0 0 -0.0942,0.284898 21.406673,22.266677 0 0 0 -0.0898,0.287109 21.406673,22.266677 0 0 0 -0.0865,0.288224 21.406673,22.266677 0 0 0 -0.0832,0.289317 21.406673,22.266677 0 0 0 -0.0798,0.290456 21.406673,22.266677 0 0 0 -0.0754,0.291549 21.406673,22.266677 0 0 0 -0.0709,0.292642 21.406673,22.266677 0 0 0 -0.0676,0.292665 21.406673,22.266677 0 0 0 -0.0643,0.294873 21.406673,22.266677 0 0 0 -0.0599,0.294875 21.406673,22.266677 0 0 0 -0.0565,0.297083 21.406673,22.266677 0 0 0 -0.0521,0.295967 21.406673,22.266677 0 0 0 -0.0488,0.2982 21.406673,22.266677 0 0 0 -0.0233,0.156382 v 6.825303 29.695637 a 17.939392,17.939392 0 0 1 -0.0233,0.215061 17.939392,17.939392 0 0 1 -0.0321,0.266038 17.939392,17.939392 0 0 1 -0.0355,0.26606 17.939392,17.939392 0 0 1 -0.0421,0.264922 17.939392,17.939392 0 0 1 -0.0433,0.264949 17.939392,17.939392 0 0 1 -0.0477,0.263829 17.939392,17.939392 0 0 1 -0.0532,0.263842 17.939392,17.939392 0 0 1 -0.0565,0.26162 17.939392,17.939392 0 0 1 -0.0588,0.261599 17.939392,17.939392 0 0 1 -0.0643,0.260509 17.939392,17.939392 0 0 1 -0.0676,0.260511 17.939392,17.939392 0 0 1 -0.0709,0.257191 17.939392,17.939392 0 0 1 -0.0765,0.258289 17.939392,17.939392 0 0 1 -0.0787,0.257191 17.939392,17.939392 0 0 1 -0.0832,0.25386 17.939392,17.939392 0 0 1 -0.0876,0.25495 17.939392,17.939392 0 0 1 -0.0909,0.25165 17.939392,17.939392 0 0 1 -0.0942,0.250529 17.939392,17.939392 0 0 1 -0.0976,0.25052 17.939392,17.939392 0 0 1 -0.1031,0.24832 17.939392,17.939392 0 0 1 -0.1053,0.246089 17.939392,17.939392 0 0 1 -0.10864,0.246091 17.939392,17.939392 0 0 1 -0.11419,0.24279 17.939392,17.939392 0 0 1 -0.11639,0.241649 17.939392,17.939392 0 0 1 -0.11972,0.239461 17.939392,17.939392 0 0 1 -0.12306,0.238321 17.939392,17.939392 0 0 1 -0.12858,0.236138 17.939392,17.939392 0 0 1 -0.13081,0.233881 17.939392,17.939392 0 0 1 -0.13414,0.23282 17.939392,17.939392 0 0 1 -0.13857,0.229439 17.939392,17.939392 0 0 1 -0.14079,0.229481 17.939392,17.939392 0 0 1 -0.14411,0.225039 17.939392,17.939392 0 0 1 -0.14855,0.223911 17.939392,17.939392 0 0 1 -0.15188,0.221721 17.939392,17.939392 0 0 1 -0.15408,0.219499 17.939392,17.939392 0 0 1 -0.15742,0.21726 17.939392,17.939392 0 0 1 -0.16073,0.213881 17.939392,17.939392 0 0 1 -0.16407,0.211719 17.939392,17.939392 0 0 1 -0.1685,0.20958 17.939392,17.939392 0 0 1 -0.16962,0.207229 17.939392,17.939392 0 0 1 -0.17403,0.205071 17.939392,17.939392 0 0 1 -0.17736,0.20058 17.939392,17.939392 0 0 1 -0.17848,0.199499 17.939392,17.939392 0 0 1 -0.1829,0.196281 17.939392,17.939392 0 0 1 -0.18624,0.19521 17.939392,17.939392 0 0 1 -0.18845,0.190701 17.939392,17.939392 0 0 1 -0.19067,0.188568 17.939392,17.939392 0 0 1 -0.1951,0.185132 17.939392,17.939392 0 0 1 -0.19622,0.182978 17.939392,17.939392 0 0 1 -0.19954,0.178472 17.939392,17.939392 0 0 1 -0.20287,0.176329 17.939392,17.939392 0 0 1 -0.20507,0.173979 17.939392,17.939392 0 0 1 -0.20731,0.16968 17.939392,17.939392 0 0 1 -0.20841,0.16733 17.939392,17.939392 0 0 1 -0.21284,0.1641 17.939392,17.939392 0 0 1 -0.21616,0.160661 17.939392,17.939392 0 0 1 -0.21617,0.157461 17.939392,17.939392 0 0 1 -0.21949,0.154019 17.939392,17.939392 0 0 1 -0.22282,0.150821 17.939392,17.939392 0 0 1 -0.22393,0.148643 17.939392,17.939392 0 0 1 -0.22614,0.14309 17.939392,17.939392 0 0 1 -0.22836,0.14202 17.939392,17.939392 0 0 1 -0.23057,0.13648 17.939392,17.939392 0 0 1 -0.23169,0.13539 17.939392,17.939392 0 0 1 -0.23501,0.12978 17.939392,17.939392 0 0 1 -0.23612,0.12744 17.939392,17.939392 0 0 1 -0.23834,0.12309 17.939392,17.939392 0 0 1 -0.23945,0.11975 17.939392,17.939392 0 0 1 -0.24276,0.11653 17.939392,17.939392 0 0 1 -0.24388,0.11304 17.939392,17.939392 0 0 1 -0.24388,0.10858 17.939392,17.939392 0 0 1 -0.24721,0.10538 17.939392,17.939392 0 0 1 -0.24831,0.10076 17.939392,17.939392 0 0 1 -0.25053,0.0987 17.939392,17.939392 0 0 1 -0.25054,0.0931 17.939392,17.939392 0 0 1 -0.25274,0.091 17.939392,17.939392 0 0 1 -0.25386,0.0864 17.939392,17.939392 0 0 1 -0.25607,0.0819 17.939392,17.939392 0 0 1 -0.25607,0.0798 17.939392,17.939392 0 0 1 -0.25719,0.0754 17.939392,17.939392 0 0 1 -0.2594,0.071 17.939392,17.939392 0 0 1 -0.25939,0.0666 17.939392,17.939392 0 0 1 -0.26051,0.0632 17.939392,17.939392 0 0 1 -0.26161,0.0599 17.939392,17.939392 0 0 1 -0.26273,0.0554 17.939392,17.939392 0 0 1 -0.26273,0.0521 17.939392,17.939392 0 0 1 -0.26494,0.0476 17.939392,17.939392 0 0 1 -0.26493,0.0444 17.939392,17.939392 0 0 1 -0.26495,0.0388 17.939392,17.939392 0 0 1 -0.26605,0.0354 17.939392,17.939392 0 0 1 -0.004,0.001 17.939392,17.939392 0 0 1 -0.26604,0.0311 17.939392,17.939392 0 0 1 -0.26717,0.0287 17.939392,17.939392 0 0 1 -0.26715,0.0234 17.939392,17.939392 0 0 1 -0.26827,0.0193 17.939392,17.939392 0 0 1 -0.26716,0.0151 17.939392,17.939392 0 0 1 -0.26938,0.0112 17.939392,17.939392 0 0 1 -0.26827,0.007 17.939392,17.939392 0 0 1 -0.26716,0.004 17.939392,17.939392 0 0 1 -0.006,0 c 0.53522,0.63962 1.03854,1.30948 1.63842,1.88452 0.9906,0.9496 2.06534,1.8075 3.20812,2.55963 1.14278,0.75213 2.35455,1.39859 3.61939,1.92664 1.26485,0.52807 2.58297,0.93763 3.93977,1.21499 1.35679,0.27733 2.7517,0.42232 4.17033,0.42233 1.06905,-5e-5 2.12507,-0.083 3.16157,-0.24386 1.03649,-0.1609 2.05391,-0.3996 3.04406,-0.71169 0.99015,-0.3121 1.9533,-0.69673 2.88332,-1.15069 0.93001,-0.45394 1.82658,-0.97669 2.68267,-1.56303 0.85608,-0.58634 1.67154,-1.2373 2.4399,-1.94659 0.76837,-0.70932 1.48927,-1.47742 2.15612,-2.30024 0.66685,-0.82279 1.27977,-1.69927 1.83132,-2.62614 0.55154,-0.926866 1.04193,-1.903946 1.46438,-2.925425 l 0.16627,0.0311 c -0.28133,1.258699 -0.64467,2.593545 -1.07085,3.949735 2.61489,-7.821447 2.26697,-14.843406 2.26697,-14.843406 l -0.1043,-10.6908 -0.43011,-44.404883 z"
       style="display:inline;opacity:0.998;fill:url(#linearGradient1158);fill-opacity:1;stroke:none;stroke-width:0.567574;stroke-linecap:round;stroke-linejoin:round;stroke-miterlimit:4;stroke-dasharray:none;stroke-opacity:1;paint-order:stroke fill markers"
       id="path1041-8"
       inkscape:export-xdpi="96"
       inkscape:export-ydpi="96" />
    <path
       sodipodi:nodetypes="ccccccccscccccsssccccccccccccccsccscscsscccccccssccssccssccscsccccscsccccssccsscccccscccccccccccccccscccccccccccc"
       d="m 239.39683,31.581855 v 0.0011 l -0.43011,44.404892 -0.10426,10.690788 c 0,0 -0.0215,0.645422 -0.005,1.663912 l -0.0931,5.242309 c 0,0 -0.29318,31.111294 -29.82111,33.140794 4.923,3.25569 12.24123,6.4899 18.07497,6.49011 16.95474,8e-5 31.35108,-13.89598 31.35074,-31.5319 -1.6e-4,-5.066845 0.25284,-22.728917 0.38796,-26.133896 l -0.0298,0.01926 V 57.179603 50.354321 c -0.009,-0.05213 -0.015,-0.104255 -0.0234,-0.156382 -0.015,-0.09954 -0.0317,-0.198857 -0.0487,-0.298199 -0.0172,-0.09867 -0.0341,-0.197355 -0.0521,-0.295968 -0.0172,-0.09911 -0.0369,-0.198213 -0.0564,-0.297105 -0.0193,-0.09846 -0.0393,-0.196712 -0.0598,-0.294852 -0.0215,-0.09846 -0.0423,-0.196712 -0.0643,-0.294874 -0.0219,-0.09782 -0.0444,-0.19521 -0.0676,-0.292664 -0.0229,-0.09782 -0.0468,-0.19521 -0.071,-0.292665 -0.0245,-0.09739 -0.0496,-0.194567 -0.0753,-0.291549 -0.0259,-0.09695 -0.0526,-0.193923 -0.0798,-0.290433 -0.027,-0.09675 -0.0549,-0.193065 -0.0832,-0.289318 -0.0281,-0.09631 -0.0571,-0.192422 -0.0865,-0.288224 -0.0292,-0.09589 -0.0592,-0.191564 -0.0897,-0.287108 -0.0307,-0.09524 -0.0622,-0.190061 -0.0942,-0.2849 -0.0324,-0.09482 -0.0652,-0.189418 -0.0987,-0.283804 -0.033,-0.09482 -0.0665,-0.189418 -0.10082,-0.283784 -0.0346,-0.09375 -0.0695,-0.187272 -0.10533,-0.280457 -0.0356,-0.09375 -0.0719,-0.187274 -0.10854,-0.280459 -0.0371,-0.0931 -0.0749,-0.185772 -0.11304,-0.27825 -0.0382,-0.09224 -0.077,-0.184269 -0.11648,-0.276017 -0.0393,-0.09203 -0.0792,-0.183627 -0.11971,-0.274924 -0.0405,-0.0916 -0.0815,-0.182768 -0.12313,-0.273809 -0.0416,-0.09074 -0.0837,-0.181266 -0.12635,-0.271599 -0.0431,-0.0901 -0.0867,-0.179979 -0.13086,-0.269367 -0.0442,-0.08945 -0.0888,-0.178478 -0.13408,-0.267159 -0.0453,-0.08903 -0.0912,-0.177619 -0.1375,-0.266043 -0.0463,-0.08839 -0.0933,-0.176117 -0.14072,-0.263833 -0.0474,-0.08752 -0.0955,-0.174831 -0.14415,-0.261624 -0.0485,-0.08709 -0.0976,-0.173972 -0.14738,-0.260509 -0.0498,-0.08601 -0.1,-0.171827 -0.1508,-0.257184 -0.0509,-0.0858 -0.10211,-0.170969 -0.15402,-0.256067 -0.0523,-0.08495 -0.10512,-0.169682 -0.15853,-0.25386 -0.053,-0.08388 -0.10661,-0.167322 -0.16067,-0.250533 -0.054,-0.08345 -0.10877,-0.166679 -0.16411,-0.249417 -0.0551,-0.08237 -0.1109,-0.164534 -0.16732,-0.246094 -0.0564,-0.08173 -0.11327,-0.163032 -0.17076,-0.243883 -0.0575,-0.08088 -0.1154,-0.16153 -0.17397,-0.241653 -0.0583,-0.08022 -0.11712,-0.160027 -0.17633,-0.239464 -0.0596,-0.07958 -0.11991,-0.158527 -0.18062,-0.237211 -0.0605,-0.07852 -0.12142,-0.156382 -0.18299,-0.23391 -0.0616,-0.07765 -0.12355,-0.15488 -0.18619,-0.231676 -0.0626,-0.07658 -0.12592,-0.152735 -0.18964,-0.228375 -0.0635,-0.07573 -0.12742,-0.151233 -0.19177,-0.226142 -0.0646,-0.07508 -0.12958,-0.149733 -0.195,-0.223912 -0.0652,-0.07401 -0.13107,-0.147587 -0.19735,-0.220608 -0.0667,-0.07294 -0.13407,-0.145442 -0.20165,-0.217284 -0.0671,-0.07209 -0.13472,-0.14394 -0.20293,-0.215051 -0.0682,-0.07143 -0.13708,-0.14244 -0.20615,-0.212802 -0.0695,-0.07037 -0.13922,-0.140293 -0.20958,-0.209582 -0.0701,-0.06929 -0.14073,-0.137931 -0.21173,-0.206148 -0.0712,-0.06822 -0.14287,-0.135796 -0.21508,-0.202935 -0.0721,-0.06735 -0.14437,-0.134289 -0.21726,-0.200572 -0.0727,-0.06586 -0.14587,-0.131288 -0.21949,-0.196282 -0.0734,-0.06522 -0.14738,-0.129781 -0.2217,-0.193923 -0.0746,-0.06458 -0.14952,-0.128288 -0.22505,-0.191776 -0.0753,-0.06307 -0.15102,-0.125497 -0.22726,-0.187274 -0.0762,-0.06199 -0.15253,-0.123346 -0.22945,-0.184053 -0.0772,-0.06071 -0.15488,-0.120989 -0.23282,-0.180624 -0.0776,-0.06007 -0.15552,-0.11948 -0.23388,-0.178477 -0.0787,-0.05856 -0.15767,-0.116481 -0.23723,-0.173972 -0.0792,-0.05749 -0.15853,-0.114332 -0.23833,-0.170755 -0.0802,-0.05663 -0.16067,-0.112838 -0.24167,-0.168396 -0.0806,-0.05535 -0.16153,-0.110047 -0.24277,-0.164105 -0.0817,-0.05405 -0.16368,-0.107687 -0.2461,-0.160672 -0.0819,-0.05298 -0.16453,-0.105538 -0.2472,-0.157456 -0.0828,-0.05192 -0.16604,-0.103179 -0.24942,-0.15402 -0.0834,-0.05084 -0.16732,-0.101046 -0.25165,-0.150805 -0.0843,-0.04934 -0.16882,-0.09803 -0.25386,-0.146302 -0.0847,-0.04869 -0.16968,-0.09675 -0.25495,-0.144154 -0.0854,-0.04719 -0.17119,-0.09374 -0.25719,-0.13965 -0.0862,-0.04569 -0.17268,-0.09074 -0.25941,-0.13514 -0.0865,-0.04483 -0.17333,-0.08924 -0.26048,-0.133004 -0.0873,-0.04377 -0.17483,-0.08709 -0.26274,-0.129781 -0.0877,-0.04247 -0.17569,-0.08409 -0.26384,-0.125273 -0.0884,-0.04098 -0.17719,-0.08109 -0.26604,-0.120779 -0.0888,-0.0399 -0.17784,-0.07894 -0.26716,-0.117555 -0.0892,-0.0384 -0.17869,-0.07594 -0.26827,-0.113047 -0.0899,-0.03754 -0.18019,-0.07465 -0.27049,-0.110898 -0.0903,-0.03604 -0.18083,-0.07165 -0.27157,-0.106404 -0.0912,-0.03432 -0.18234,-0.06779 -0.27384,-0.100821 -0.0912,-0.03347 -0.18233,-0.0665 -0.27381,-0.09867 -0.0918,-0.03196 -0.18384,-0.0635 -0.27601,-0.09418 -0.0918,-0.03089 -0.18384,-0.06135 -0.27602,-0.09096 -0.0925,-0.02939 -0.18534,-0.05835 -0.27825,-0.08645 -0.0929,-0.02875 -0.18598,-0.05684 -0.27936,-0.08431 -0.0929,-0.02681 -0.18599,-0.0532 -0.27935,-0.07873 -0.0937,-0.02532 -0.18748,-0.0502 -0.28157,-0.07422 -0.0937,-0.02424 -0.18749,-0.04805 -0.28157,-0.07101 -0.0944,-0.02317 -0.18899,-0.04569 -0.28379,-0.06758 -0.0944,-0.02145 -0.18899,-0.04205 -0.28378,-0.062 -0.0944,-0.0193 -0.18899,-0.0399 -0.28378,-0.05877 -0.0952,-0.0193 -0.19049,-0.0369 -0.28602,-0.05428 -0.0952,-0.01717 -0.19049,-0.03475 -0.28599,-0.05105 -0.0952,-0.01717 -0.19049,-0.03175 -0.28602,-0.04654 -0.0959,-0.01502 -0.19199,-0.03024 -0.28822,-0.04441 -0.0957,-0.01284 -0.19135,-0.0266 -0.28711,-0.03883 -0.0959,-0.01284 -0.19199,-0.0236 -0.28822,-0.03432 -0.0963,-0.01075 -0.19285,-0.02145 -0.28932,-0.03111 -0.0682,-0.0064 -0.13665,-0.01284 -0.20508,-0.0193 z"
       style="display:inline;opacity:0.998;fill:url(#linearGradient877);fill-opacity:1;stroke:none;stroke-width:0.567574;stroke-linecap:round;stroke-linejoin:round;stroke-miterlimit:4;stroke-dasharray:none;stroke-opacity:1;paint-order:stroke fill markers"
       id="path1099-5"
       inkscape:export-xdpi="96"
       inkscape:export-ydpi="96" />
  </g>
</svg>
